<svg width="666" height="64" viewBox="0 0 666 64" fill="none" xmlns="http://www.w3.org/2000/svg">
<path d="M23 26H41V28H23V26ZM23 31H41V33H23V31ZM23 36H41V38H23V36Z" fill="white"/>
<path d="M82 23H68C67.4696 23 66.9609 23.2107 66.5858 23.5858C66.2107 23.9609 66 24.4696 66 25V39C66 39.5304 66.2107 40.0391 66.5858 40.4142C66.9609 40.7893 67.4696 41 68 41H82C82.5304 41 83.0391 40.7893 83.4142 40.4142C83.7893 40.0391 84 39.5304 84 39V25C84 24.4696 83.7893 23.9609 83.4142 23.5858C83.0391 23.2107 82.5304 23 82 23ZM82 39H68V25H82V39ZM80 28.4L76.4 32L80 35.6L78.6 37L75 33.4L71.4 37L70 35.6L73.6 32L70 28.4L71.4 27L75 30.6L78.6 27L80 28.4Z" fill="white"/>
<path d="M639.5 27C640.959 27 642.358 27.5795 643.389 28.6109C644.421 29.6424 645 31.0413 645 32.5C645 33.9587 644.421 35.3576 643.389 36.3891C642.358 37.4205 640.959 38 639.5 38C637.79 38 636.27 37.22 635.26 36H632.74C631.73 37.22 630.21 38 628.5 38C627.041 38 625.642 37.4205 624.611 36.3891C623.579 35.3576 623 33.9587 623 32.5C623 31.0413 623.579 29.6424 624.611 28.6109C625.642 27.5795 627.041 27 628.5 27H639.5ZM628.5 29C627.572 29 626.682 29.3687 626.025 30.0251C625.369 30.6815 625 31.5717 625 32.5C625 33.4283 625.369 34.3185 626.025 34.9749C626.682 35.6313 627.572 36 628.5 36C629.9 36 631.1 35.18 631.66 34H636.34C636.9 35.18 638.1 36 639.5 36C640.428 36 641.318 35.6313 641.975 34.9749C642.631 34.3185 643 33.4283 643 32.5C643 31.5717 642.631 30.6815 641.975 30.0251C641.318 29.3687 640.428 29 639.5 29H628.5ZM627.75 30.25H629.25V31.75H630.75V33.25H629.25V34.75H627.75V33.25H626.25V31.75H627.75V30.25ZM638.75 32.5C639.015 32.5 639.27 32.6054 639.457 32.7929C639.645 32.9804 639.75 33.2348 639.75 33.5C639.75 33.7652 639.645 34.0196 639.457 34.2071C639.27 34.3946 639.015 34.5 638.75 34.5C638.485 34.5 638.23 34.3946 638.043 34.2071C637.855 34.0196 637.75 33.7652 637.75 33.5C637.75 33.2348 637.855 32.9804 638.043 32.7929C638.23 32.6054 638.485 32.5 638.75 32.5ZM640.75 30.5C641.015 30.5 641.27 30.6054 641.457 30.7929C641.645 30.9804 641.75 31.2348 641.75 31.5C641.75 31.7652 641.645 32.0196 641.457 32.2071C641.27 32.3946 641.015 32.5 640.75 32.5C640.485 32.5 640.23 32.3946 640.043 32.2071C639.855 32.0196 639.75 31.7652 639.75 31.5C639.75 31.2348 639.855 30.9804 640.043 30.7929C640.23 30.6054 640.485 30.5 640.75 30.5Z" fill="white"/>
<path d="M128 38H123C122.735 38 122.48 37.8946 122.293 37.7071C122.105 37.5196 122 37.2652 122 37V27C122 26.7348 122.105 26.4804 122.293 26.2929C122.48 26.1054 122.735 26 123 26H128C128.265 26 128.52 26.1054 128.707 26.2929C128.895 26.4804 129 26.7348 129 27V37C129 37.2652 128.895 37.5196 128.707 37.7071C128.52 37.8946 128.265 38 128 38ZM128 28H123V29H128V28ZM128 30H123V31H128V30ZM115 35V37H116V38H111V37H112V35H108C107.735 35 107.48 34.8946 107.293 34.7071C107.105 34.5196 107 34.2652 107 34V27C107 26.7348 107.105 26.4804 107.293 26.2929C107.48 26.1054 107.735 26 108 26H119C119.265 26 119.52 26.1054 119.707 26.2929C119.895 26.4804 120 26.7348 120 27V34C120 34.2652 119.895 34.5196 119.707 34.7071C119.52 34.8946 119.265 35 119 35H115ZM118 28H109V33H118V28Z" fill="white"/>
<path d="M583 25C582.47 25 581.961 25.2107 581.586 25.5858C581.211 25.9609 581 26.4696 581 27V37C581 37.5304 581.211 38.0391 581.586 38.4142C581.961 38.7893 582.47 39 583 39H599C599.53 39 600.039 38.7893 600.414 38.4142C600.789 38.0391 601 37.5304 601 37V27C601 26.4696 600.789 25.9609 600.414 25.5858C600.039 25.2107 599.53 25 599 25H583ZM583 27H599V37H583V27ZM584 28V30H586V28H584ZM587 28V30H589V28H587ZM590 28V30H592V28H590ZM593 28V30H595V28H593ZM596 28V30H598V28H596ZM584 31V33H586V31H584ZM587 31V33H589V31H587ZM590 31V33H592V31H590ZM593 31V33H595V31H593ZM596 31V33H598V31H596ZM587 34V36H595V34H587Z" fill="white"/>
<path d="M290 24C291.061 24 292.078 24.4214 292.828 25.1716C293.579 25.9217 294 26.9391 294 28C294 29.0609 293.579 30.0783 292.828 30.8284C292.078 31.5786 291.061 32 290 32C288.939 32 287.922 31.5786 287.172 30.8284C286.421 30.0783 286 29.0609 286 28C286 26.9391 286.421 25.9217 287.172 25.1716C287.922 24.4214 288.939 24 290 24ZM290 26C289.47 26 288.961 26.2107 288.586 26.5858C288.211 26.9609 288 27.4696 288 28C288 28.5304 288.211 29.0391 288.586 29.4142C288.961 29.7893 289.47 30 290 30C290.53 30 291.039 29.7893 291.414 29.4142C291.789 29.0391 292 28.5304 292 28C292 27.4696 291.789 26.9609 291.414 26.5858C291.039 26.2107 290.53 26 290 26ZM290 33C292.67 33 298 34.33 298 37V40H282V37C282 34.33 287.33 33 290 33ZM290 34.9C287.03 34.9 283.9 36.36 283.9 37V38.1H296.1V37C296.1 36.36 292.97 34.9 290 34.9Z" fill="white"/>
<path d="M331 32C333.21 32 335 30.21 335 28C335 25.79 333.21 24 331 24C328.79 24 327 25.79 327 28C327 30.21 328.79 32 331 32ZM331 26C332.11 26 333 26.9 333 28C333 29.1 332.11 30 331 30C329.89 30 329 29.11 329 28C329 26.89 329.9 26 331 26ZM334.25 33.45C333.07 33.15 331.89 33 331 33C328.33 33 323 34.33 323 37V40H334.09C334.07 39.86 334.05 39.73 334.04 39.59C334 39.4 334 39.2 334 39C334 38.69 334.03 38.39 334.08 38.1C334.21 37.21 334.54 36.38 335 35.66C335.21 35.38 335.42 35.12 335.65 34.88L335.67 34.85C335.9 34.61 336.16 34.39 336.43 34.19C335.75 33.88 335 33.63 334.25 33.45ZM332.05 38.1H324.9V37C324.9 36.36 328.03 34.9 331 34.9C331.68 34.9 332.36 35 333 35.11C332.5 36 332.18 37 332.05 38.1ZM343 38V40H339V42L336 39L339 36V38H343Z" fill="white"/>
<path d="M504.64 25.93H506.07V30.21H504.64V25.93ZM508.57 25.93H510V30.21H508.57V25.93ZM500 22L496.43 25.57V38.43H500.71V42L504.29 38.43H507.14L513.57 32V22H500ZM512.14 31.29L509.29 34.14H506.43L503.93 36.64V34.14H500.71V23.43H512.14V31.29Z" fill="white"/>
<path d="M472.46 26C471.69 26.35 470.86 26.58 470 26.69C470.88 26.16 471.56 25.32 471.88 24.31C471.05 24.81 470.13 25.16 469.16 25.36C468.37 24.5 467.26 24 466 24C463.65 24 461.73 25.92 461.73 28.29C461.73 28.63 461.77 28.96 461.84 29.27C458.28 29.09 455.11 27.38 453 24.79C452.63 25.42 452.42 26.16 452.42 26.94C452.42 28.43 453.17 29.75 454.33 30.5C453.62 30.5 452.96 30.3 452.38 30C452.38 30 452.38 30 452.38 30.03C452.38 32.11 453.86 33.85 455.82 34.24C455.46 34.34 455.08 34.39 454.69 34.39C454.42 34.39 454.15 34.36 453.89 34.31C454.43 36 456 37.26 457.89 37.29C456.43 38.45 454.58 39.13 452.56 39.13C452.22 39.13 451.88 39.11 451.54 39.07C453.44 40.29 455.7 41 458.12 41C466 41 470.33 34.46 470.33 28.79C470.33 28.6 470.33 28.42 470.32 28.23C471.16 27.63 471.88 26.87 472.46 26Z" fill="white"/>
<path d="M414.8 22H423.2C426.4 22 429 24.6 429 27.8V36.2C429 37.7383 428.389 39.2135 427.301 40.3012C426.214 41.3889 424.738 42 423.2 42H414.8C411.6 42 409 39.4 409 36.2V27.8C409 26.2617 409.611 24.7865 410.699 23.6988C411.786 22.6111 413.262 22 414.8 22ZM414.6 24C413.645 24 412.73 24.3793 412.054 25.0544C411.379 25.7295 411 26.6452 411 27.6V36.4C411 38.39 412.61 40 414.6 40H423.4C424.355 40 425.27 39.6207 425.946 38.9456C426.621 38.2705 427 37.3548 427 36.4V27.6C427 25.61 425.39 24 423.4 24H414.6ZM424.25 25.5C424.582 25.5 424.899 25.6317 425.134 25.8661C425.368 26.1005 425.5 26.4185 425.5 26.75C425.5 27.0815 425.368 27.3995 425.134 27.6339C424.899 27.8683 424.582 28 424.25 28C423.918 28 423.601 27.8683 423.366 27.6339C423.132 27.3995 423 27.0815 423 26.75C423 26.4185 423.132 26.1005 423.366 25.8661C423.601 25.6317 423.918 25.5 424.25 25.5ZM419 27C420.326 27 421.598 27.5268 422.536 28.4645C423.473 29.4021 424 30.6739 424 32C424 33.3261 423.473 34.5979 422.536 35.5355C421.598 36.4732 420.326 37 419 37C417.674 37 416.402 36.4732 415.464 35.5355C414.527 34.5979 414 33.3261 414 32C414 30.6739 414.527 29.4021 415.464 28.4645C416.402 27.5268 417.674 27 419 27ZM419 29C418.204 29 417.441 29.3161 416.879 29.8787C416.316 30.4413 416 31.2044 416 32C416 32.7956 416.316 33.5587 416.879 34.1213C417.441 34.6839 418.204 35 419 35C419.796 35 420.559 34.6839 421.121 34.1213C421.684 33.5587 422 32.7956 422 32C422 31.2044 421.684 30.4413 421.121 29.8787C420.559 29.3161 419.796 29 419 29Z" fill="white"/>
<path d="M374 35L379.19 32L374 29V35ZM385.56 27.17C385.69 27.64 385.78 28.27 385.84 29.07C385.91 29.87 385.94 30.56 385.94 31.16L386 32C386 34.19 385.84 35.8 385.56 36.83C385.31 37.73 384.73 38.31 383.83 38.56C383.36 38.69 382.5 38.78 381.18 38.84C379.88 38.91 378.69 38.94 377.59 38.94L376 39C371.81 39 369.2 38.84 368.17 38.56C367.27 38.31 366.69 37.73 366.44 36.83C366.31 36.36 366.22 35.73 366.16 34.93C366.09 34.13 366.06 33.44 366.06 32.84L366 32C366 29.81 366.16 28.2 366.44 27.17C366.69 26.27 367.27 25.69 368.17 25.44C368.64 25.31 369.5 25.22 370.82 25.16C372.12 25.09 373.31 25.06 374.41 25.06L376 25C380.19 25 382.8 25.16 383.83 25.44C384.73 25.69 385.31 26.27 385.56 27.17Z" fill="white"/>
<path d="M158.5 24.27C159.88 24.53 161.9 25.14 163 25.5C165.75 26.45 166.69 27.63 166.69 30.29C166.69 32.89 165.09 33.87 163.05 32.89V28.05C163.05 27.5 162.95 26.97 162.41 26.82C162 26.69 161.76 27.07 161.76 27.63V39.73L158.5 38.69V24.27ZM162.37 37.62L167.62 35.75C168.22 35.54 168.31 35.24 167.83 35.08C167.34 34.92 166.47 34.97 165.87 35.18L162.37 36.41V34.45L162.58 34.38C162.58 34.38 163.59 34 165 33.87C166.43 33.71 168.17 33.89 169.53 34.4C171.07 34.89 171.25 35.61 170.86 36.1C170.46 36.6 169.5 36.95 169.5 36.95L162.37 39.5V37.62ZM152.5 37.42C150.93 37 150.66 36.05 151.38 35.5C152.05 35 153.18 34.65 153.18 34.65L157.86 33V34.88L154.5 36.09C153.9 36.3 153.81 36.6 154.29 36.76C154.77 36.92 155.65 36.88 156.24 36.66L157.86 36.08V37.77L157.54 37.83C155.92 38.09 154.2 38 152.5 37.42Z" fill="white"/>
<path d="M200.576 35.3383C198.576 35.3383 197.826 37.5883 195.826 38.5883C193.826 38.5883 192.326 35.5883 196.326 27.0883H196.576L197.016 26.2583C197.016 26.2583 199.826 24.5883 201.156 25.8183H206.496C207.826 24.5883 210.636 26.2583 210.636 26.2583L211.076 27.0883H211.326C215.326 35.5883 213.826 38.5883 211.826 38.5883C209.826 37.5883 209.076 35.3383 207.076 35.3383H200.576ZM203.826 26.5883C203.561 26.5883 203.307 26.6937 203.119 26.8812C202.931 27.0688 202.826 27.3231 202.826 27.5883C202.826 27.8535 202.931 28.1079 203.119 28.2954C203.307 28.483 203.561 28.5883 203.826 28.5883C204.091 28.5883 204.346 28.483 204.533 28.2954C204.721 28.1079 204.826 27.8535 204.826 27.5883C204.826 27.3231 204.721 27.0688 204.533 26.8812C204.346 26.6937 204.091 26.5883 203.826 26.5883Z" fill="white"/>
<path d="M244.866 39.9883H241.946C241.016 39.9883 240.126 39.5883 239.466 38.9483C238.826 38.2883 238.426 37.3983 238.426 36.4683V26.7083C238.426 25.7783 238.826 24.8883 239.466 24.2283C240.126 23.5883 241.016 23.2083 241.946 23.2083H244.866V39.9883ZM241.946 21.5883C240.588 21.5883 239.286 22.1277 238.326 23.0879C237.366 24.0481 236.826 25.3504 236.826 26.7083V36.4683C236.826 39.2983 239.116 41.5883 241.946 41.5883H246.476V21.5883H241.946ZM239.936 27.5883C239.936 28.6283 240.776 29.4683 241.826 29.4683C242.856 29.4683 243.696 28.6283 243.696 27.5883C243.696 26.5483 242.856 25.7083 241.826 25.7083C240.776 25.7083 239.936 26.5483 239.936 27.5883ZM252.436 30.5883C253.546 30.5883 254.446 31.4783 254.446 32.5883C254.446 33.7083 253.546 34.5883 252.436 34.5883C251.326 34.5883 250.406 33.7083 250.406 32.5883C250.406 31.4783 251.326 30.5883 252.436 30.5883ZM251.706 41.5883C253.064 41.5883 254.366 41.0489 255.327 40.0887C256.287 39.1285 256.826 37.8262 256.826 36.4683V26.7083C256.826 23.8783 254.536 21.5883 251.706 21.5883H248.476V41.5883H251.706Z" fill="white"/>
<path d="M554 22C553.1 22 552 23 552 24H544C544 23 542.9 22 542 22H538V31C538 32 539 33 540 33H542.2C542.6 35 543.9 36.7 547 37V39.08C544 39.54 544 42 544 42H552C552 42 552 39.54 549 39.08V37C552.1 36.7 553.4 35 553.8 33H556C557 33 558 32 558 31V22H554ZM542 31H540V24H542V31ZM552 31.5C552 33.43 551.42 35 548 35C544.59 35 544 33.43 544 31.5V26H552V31.5ZM556 31H554V24H556V31Z" fill="white"/>
<rect x="0.5" y="0.5" width="665" height="63" rx="4.5" stroke="#7B61FF" stroke-dasharray="10 5"/>
</svg>
